Coordinates
version=1
nRows=11
nColumns=36
inDegrees=yes

Units are S.I. units (second, meters, Newtons, ...)
If the header above contains a line with 'inDegrees', this indicates whether rotational values are in degrees (yes) or radians (no).

endheader
time	pelvis_tilt	pelvis_list	pelvis_rotation	pelvis_tx	pelvis_ty	pelvis_tz	hip_flexion_r	hip_adduction_r	hip_rotation_r	knee_angle_r	knee_angle_r_beta	ankle_angle_r	subtalar_angle_r	mtp_angle_r	hip_flexion_l	hip_adduction_l	hip_rotation_l	knee_angle_l	knee_angle_l_beta	ankle_angle_l	subtalar_angle_l	mtp_angle_l	lumbar_extension	lumbar_bending	lumbar_rotation	arm_flex_r	arm_add_r	arm_rot_r	elbow_flex_r	pro_sup_r	arm_flex_l	arm_add_l	arm_rot_l	elbow_flex_l	pro_sup_l
      0.00000000	     -6.61328614	     -3.23441164	     34.40184946	     -1.02508915	      1.22837223	     -0.06940478	     12.06498390	      0.33938896	    -18.21201101	     14.26157075	      0.24891137	      6.77928129	    -26.33721347	     -6.47786863	     27.18135059	      1.92683584	      4.02756574	     22.93468324	      0.40028574	      2.90505328	     -6.42934327	     -6.47786863	    -20.36114286	     -0.34463157	     10.15525549	     36.21954877	     -6.06852342	     38.40707566	     20.71828462	     77.70659083	     24.96465114	     -1.25801386	      6.32397736	     23.43401003	     77.97718218
      0.00416670	     -7.50096060	     -4.19107718	     34.76602310	     -1.02256138	      1.22957370	     -0.07002453	     13.89714468	      0.96717870	    -19.83066995	     14.49415475	      0.25297072	      5.68436026	    -27.13874613	     -6.50160499	     28.32565942	      2.23462571	      6.18768992	     23.10211908	      0.40320804	      3.33401708	     -7.89145052	     -6.50160499	    -19.25369271	      0.09393332	     11.56833036	     35.92063919	     -7.29547693	     38.43011477	     20.78492957	     77.77700371	     26.68101440	     -0.71726789	      5.26822769	     20.94253628	     77.29931567
      0.00833330	     -7.45335660	     -3.94030082	     34.93820584	     -1.02394917	      1.23185918	     -0.06895682	     13.37366412	      0.95468612	    -20.95574307	     13.67624175	      0.23869545	      4.79444530	    -28.34109444	     -6.60157449	     28.20922943	      2.57563203	      6.87201174	     22.48227014	      0.39238964	      3.38100390	     -9.92860929	     -6.60157449	    -19.62862442	     -0.82910416	     13.04362790	     35.85935730	     -7.98258125	     39.07561603	     20.59108861	     77.37267912	     28.44603091	      0.48240972	      3.47839114	     18.65838535	     74.94005416
      0.01250000	     -7.83314915	     -4.11268901	     34.58828640	     -1.02683054	      1.23039863	     -0.06738022	     14.22683191	      0.76086645	    -21.06897120	     14.33306522	      0.25015918	      5.05274809	    -29.17277415	     -6.78832849	     28.81961520	      2.73456103	      7.21933471	     22.42974553	      0.39147291	      3.12913541	    -11.80866714	     -6.78832849	    -19.58957521	     -1.23754546	     13.39999406	     36.41457422	     -8.77057981	     42.83091484	     21.19185126	     80.15426971	     28.94824243	      1.75849824	     -4.48714054	     18.94245070	     66.27637054
      0.01666670	     -7.94079398	     -3.95673072	     34.62053189	     -1.02285303	      1.23202239	     -0.06946439	     13.98776222	      0.62289367	    -21.53466365	     13.90922952	      0.24276185	      5.04671741	    -29.29450084	     -6.82133099	     28.48641851	      3.07121026	      7.53091819	     21.96169668	      0.38330392	      2.52337265	    -13.34102784	     -6.82133099	    -19.43783016	     -1.66018243	     14.33070659	     35.68857865	    -10.03331292	     44.34108160	     22.20647129	     81.01444156	     28.81706791	      2.23671392	     -4.91086479	     19.11818901	     64.88089071
      0.02083330	     -8.05634002	     -3.90491124	     34.42612409	     -1.02137453	      1.22989927	     -0.06867287	     14.07961241	      0.57991985	    -21.63386775	     13.90443956	      0.24267825	      5.11429551	    -29.36094236	     -7.24905312	     28.46944466	      3.22630089	      7.69459301	     22.10404823	      0.38578842	      2.37682407	    -14.22497818	     -7.24905312	    -19.10289542	     -1.92234784	     15.06192186	     35.46565161	    -10.80210705	     47.87605563	     22.18328063	     82.14857534	     28.46835178	      1.59377841	      2.41002009	     19.46601722	     48.92863943
      0.02500000	     -8.15739595	     -3.72865603	     34.23784314	     -1.02127454	      1.22990174	     -0.06890566	     14.09568293	      0.43811297	    -21.48158584	     13.91569018	      0.24287461	      4.80949293	    -29.83614177	     -7.26675950	     28.15062643	      3.53432829	      8.10202141	     22.00570984	      0.38407209	      1.83425947	    -15.35259619	     -7.26675950	    -19.03673616	     -2.36585885	     15.67067196	     35.15007340	    -11.49774834	     49.12364672	     22.66766006	     81.68704863	     28.34342589	      1.48992843	      3.66645779	     19.41710104	     49.66776425
      0.02916670	     -8.57002942	     -3.94144829	     34.02879258	     -1.02459403	      1.22855791	     -0.06557756	     14.95525356	      0.35689232	    -21.32436669	     14.44564565	      0.25212408	      4.71283715	    -30.28230785	     -7.34583606	     28.59495215	      3.66251231	      8.45059914	     21.99655193	      0.38391226	      1.21521469	    -16.00461416	     -7.34583606	    -18.61924870	     -2.47148049	     16.21165534	     35.44384634	    -12.28043891	     52.67561714	     23.07101237	     80.20959603	     29.14227411	      0.43521519	     15.30849863	     18.37492572	     47.78434601
      0.03333330	     -8.91066861	     -4.07187047	     33.85406937	     -1.02260003	      1.22785965	     -0.06697893	     15.58927142	      0.22771236	    -21.13713238	     15.01475182	      0.26205686	      4.50306611	    -30.93110320	     -7.37603539	     28.77677906	      3.80221938	      8.73660411	     21.83176891	      0.38103625	      0.61973451	    -16.48628988	     -7.37603539	    -18.25399831	     -2.62790523	     16.36918939	     35.77843485	    -12.48808741	     55.67409122	     23.09870258	     80.10714426	     29.44858170	     -0.05793185	     20.64829959	     17.93502458	     47.89397827
      0.03750000	     -8.99350902	     -4.07889600	     33.94930799	     -1.01997849	      1.22844470	     -0.06843809	     15.68566543	      0.12053077	    -21.14789084	     15.21559566	      0.26556224	      4.29613738	    -31.30108183	     -7.40713083	     28.50504613	      3.98885819	      9.08657077	     21.50041118	      0.37525297	      0.20547255	    -16.61524787	     -7.40713083	    -18.01810355	     -2.80014350	     16.71791728	     35.63654134	    -12.72400755	     56.67848051	     23.19272510	     78.84689382	     29.83938809	     -0.45355693	     27.50746547	     17.37327108	     47.15407831
      0.04166670	     -8.94919801	     -4.13708294	     34.23792508	     -1.02102458	      1.23004241	     -0.06779250	     15.61182601	      0.15689262	    -21.20643020	     15.15878571	      0.26457072	      4.08100373	    -31.58336320	     -7.44492993	     28.24358174	      4.07929075	      9.58496446	     21.19583023	      0.36993703	     -0.21724764	    -16.61118481	     -7.44492993	    -17.85518771	     -2.87475653	     17.10588484	     35.26455153	    -13.11711682	     56.52264013	     23.64252812	     77.17299873	     30.47922675	     -0.56274426	     35.31607954	     16.86353540	     40.37404272
